<svg width="19" height="19" viewBox="0 0 19 19" fill="none" xmlns="http://www.w3.org/2000/svg">
<path d="M5.5003 3.33995C5.87603 4.08808 6.22256 4.78967 6.58195 5.48531C6.70621 5.72594 6.92056 5.8725 7.18392 5.94281C7.64281 6.06461 8.1032 6.17947 8.55962 6.31068C9.38781 6.54933 9.91601 7.09099 10.1284 7.92676C10.3318 8.72737 10.5175 9.53293 10.7204 10.3335C10.8665 10.9089 11.659 11.4193 12.2278 11.3164C12.5546 11.2569 12.7872 11.0693 12.9367 10.7772C13.0857 10.486 13.2288 10.1924 13.3768 9.90081C13.6822 9.29973 14.16 8.91056 14.8139 8.74321C15.3871 8.59666 15.9619 8.45505 16.5356 8.31048C16.5831 8.29859 16.6297 8.28424 16.7203 8.25849C16.6267 7.90547 16.5426 7.55492 16.4396 7.20982C16.3767 6.99791 16.2861 6.79392 16.2069 6.58646C16.0767 6.24384 16.2069 5.91359 16.5232 5.78536C16.8351 5.6591 17.1638 5.80912 17.3079 6.14333C19.4301 11.0762 16.4663 16.7419 11.1962 17.8262C6.62205 18.7674 2.05832 15.7858 1.18261 11.1955C0.54401 7.85051 1.58655 5.03525 4.21272 2.85671C5.70723 1.61693 7.4651 1.02971 9.40811 1.00199C9.80612 0.996541 10.0794 1.2243 10.0898 1.57138C10.1002 1.92687 9.83483 2.18236 9.42692 2.18582C8.47051 2.19375 7.54975 2.37694 6.67304 2.75521C6.27899 2.92504 5.90326 3.13745 5.5003 3.33995ZM16.7935 9.47104C16.2312 9.61116 15.6817 9.74881 15.1317 9.88397C14.8055 9.96418 14.5708 10.1538 14.4228 10.4558C14.2679 10.7712 14.1213 11.0921 13.9466 11.3966C13.508 12.1596 12.8357 12.5294 11.9595 12.522C11.0972 12.515 9.72642 11.6308 9.52494 10.4865C9.39276 9.73544 9.16505 9.00117 8.99079 8.25651C8.88733 7.81387 8.62051 7.54502 8.18587 7.43263C7.78637 7.32865 7.38738 7.22022 6.98689 7.12119C6.48592 6.99692 6.05623 6.75679 5.73792 6.34583C5.61812 6.19086 5.51862 6.01757 5.42902 5.84279C5.13695 5.27241 4.85428 4.69757 4.56419 4.11729C4.533 4.14007 4.51221 4.15245 4.49538 4.16879C3.10928 5.49225 2.34742 7.1108 2.19842 9.02098C2.18951 9.13485 2.22564 9.19674 2.32267 9.25665C3.04196 9.70028 3.75728 10.1503 4.47459 10.5984C4.76369 10.7792 5.07705 10.8777 5.42011 10.8767C5.61168 10.8762 5.80277 10.8752 5.99435 10.8777C6.92947 10.8896 7.70816 11.2396 8.31804 11.9546C8.54229 12.2175 8.76407 12.4834 8.99426 12.7413C9.80364 13.6484 10.0244 14.6782 9.6581 15.8378C9.55909 16.1512 9.4789 16.4706 9.38831 16.7919C13.3793 16.9211 16.8569 13.5513 16.7935 9.47203V9.47104ZM2.28257 10.6276C2.78998 13.9712 5.52654 16.272 8.19181 16.6736C8.3324 16.1596 8.48734 15.6472 8.61061 15.1263C8.71655 14.6787 8.63635 14.2346 8.36408 13.8727C8.00468 13.3959 7.61212 12.9399 7.19679 12.5106C6.85373 12.1561 6.3879 12.0348 5.90277 12.067C5.0023 12.1269 4.19885 11.8907 3.46373 11.3698C3.09295 11.1069 2.69395 10.8841 2.28307 10.6276H2.28257Z" fill="#828282" stroke="#828282" stroke-width="0.25"/>
<path d="M13.4509 0.999987C14.987 1.00098 16.2167 2.26255 16.1657 3.79247C16.1499 4.26581 15.9702 4.69458 15.7474 5.10256C15.2499 6.01507 14.5841 6.80083 13.8648 7.54302C13.6386 7.77622 13.2836 7.79107 13.0633 7.5648C12.2426 6.7226 11.4881 5.83039 10.9807 4.75301C10.1431 2.97503 11.5594 0.980677 13.4509 0.999987ZM13.4514 6.2562C14.0123 5.59323 14.5623 4.94561 14.8955 4.14797C14.9984 3.9014 15.0113 3.64394 14.9459 3.38548C14.7935 2.78292 14.4217 2.38187 13.8168 2.23432C13.2054 2.08529 12.6718 2.25809 12.2713 2.7438C11.8812 3.21665 11.7975 3.75039 12.0738 4.31582C12.4232 5.03226 12.9208 5.64274 13.4514 6.2562Z" fill="#828282" stroke="#828282" stroke-width="0.25"/>
</svg>
