<svg width="20" height="20" viewBox="0 0 20 20" fill="none" xmlns="http://www.w3.org/2000/svg">
<path d="M4.42288 7.482C3.77226 8.21812 3.28779 9.07547 3 10C3.89851 12.892 6.69281 15 10.0003 15C10.6909 15 11.3586 14.908 11.9914 14.7367M5.98624 6.152C7.17727 5.39854 8.57335 4.99788 10.0003 5C13.3079 5 16.1015 7.108 17 9.99867C16.5075 11.5782 15.4505 12.941 14.0145 13.848M5.98624 6.152L3.74134 4M5.98624 6.152L8.52461 8.58533M14.0145 13.848L16.2594 16M14.0145 13.848L11.4761 11.4147C11.6698 11.2289 11.8235 11.0084 11.9284 10.7658C12.0332 10.5231 12.0872 10.263 12.0872 10.0003C12.0872 9.73767 12.0332 9.47757 11.9284 9.2349C11.8235 8.99223 11.6698 8.77173 11.4761 8.586C11.2823 8.40027 11.0523 8.25294 10.7992 8.15242C10.546 8.0519 10.2747 8.00016 10.0007 8.00016C9.72669 8.00016 9.45537 8.0519 9.20222 8.15242C8.94907 8.25294 8.71906 8.40027 8.52531 8.586M11.4754 11.414L8.526 8.58667" stroke="#828282" stroke-width="1.4" stroke-linecap="round" stroke-linejoin="round"/>
</svg>
