<svg width="24" height="24" viewBox="0 0 24 24" fill="none" xmlns="http://www.w3.org/2000/svg">
<path fill-rule="evenodd" clip-rule="evenodd" d="M0.333496 11.9992C0.333496 5.56035 5.56016 0.332516 12.0002 0.332516C18.4518 0.332516 23.6668 5.56035 23.6668 11.9992C23.6668 18.4403 18.4518 23.6659 12.0002 23.6659C5.56016 23.6659 0.333496 18.4403 0.333496 11.9992ZM10.9735 7.57752C10.9735 7.01868 11.4402 6.55085 12.0002 6.55085C12.5602 6.55085 13.0152 7.01868 13.0152 7.57752V12.7342C13.0152 13.2954 12.5602 13.7492 12.0002 13.7492C11.4402 13.7492 10.9735 13.2954 10.9735 12.7342V7.57752ZM12.0118 17.4603C11.4402 17.4603 10.9852 16.9937 10.9852 16.4337C10.9852 15.8737 11.4402 15.4187 12.0002 15.4187C12.5718 15.4187 13.0268 15.8737 13.0268 16.4337C13.0268 16.9937 12.5718 17.4603 12.0118 17.4603Z" fill="#F0B212"/>
</svg>
