<svg width="191" height="219" viewBox="0 0 191 219" fill="none" xmlns="http://www.w3.org/2000/svg">
<path d="M132.671 189.188H74.2467C64.2263 189.188 56.0283 181.022 56.0283 171.042V119.628C56.0283 109.648 64.2263 101.482 74.2467 101.482H132.672C142.692 101.482 150.89 109.648 150.89 119.628V171.042C150.89 181.022 142.691 189.188 132.671 189.188Z" fill="white"/>
<path d="M132.672 101.482C142.692 101.482 150.89 109.647 150.89 119.627V171.041C150.89 181.022 142.692 189.187 132.672 189.187H74.2475C64.2271 189.187 56.0291 181.022 56.0291 171.041V119.627C56.0291 109.647 64.2271 101.482 74.2475 101.482H132.672ZM132.672 98.6135H74.2475C71.4098 98.6135 68.6511 99.1724 66.0478 100.274C63.5384 101.336 61.2832 102.853 59.3448 104.784C57.4064 106.715 55.8826 108.962 54.8163 111.46C53.7105 114.053 53.1494 116.801 53.1494 119.627V171.041C53.1494 173.868 53.7105 176.615 54.8163 179.208C55.8826 181.708 57.4056 183.954 59.3448 185.885C61.2832 187.815 63.5392 189.333 66.0478 190.395C68.6511 191.496 71.4098 192.055 74.2475 192.055H132.673C135.51 192.055 138.269 191.496 140.872 190.395C143.382 189.333 145.637 187.816 147.575 185.885C149.514 183.954 151.037 181.707 152.104 179.208C153.21 176.615 153.771 173.868 153.771 171.041V119.627C153.771 116.801 153.21 114.053 152.104 111.46C151.037 108.961 149.515 106.715 147.575 104.784C145.637 102.854 143.381 101.336 140.872 100.274C138.269 99.1724 135.509 98.6135 132.672 98.6135Z" fill="#00227B"/>
<path d="M149.584 157.396C140.488 158.458 131.421 158.72 131.421 158.72C131.421 158.72 126.804 135.787 125.523 117.805C124.581 104.481 125.467 93.8777 131.421 97.3359C134.16 98.9273 137.314 101.924 140.604 105.726C152.941 119.989 167.116 145.601 167.893 150.915C168.395 154.333 158.977 156.293 149.584 157.396Z" fill="white"/>
<path d="M130.203 160.247L129.955 159.014C129.927 158.873 127.103 144.782 125.275 130.192C124.198 121.59 123.671 114.488 123.709 109.083C123.761 101.701 124.837 97.5146 127.095 95.9076C128.087 95.202 129.774 94.6546 132.176 96.0502C140.096 100.652 150.148 115.313 155.435 123.642C158.961 129.198 162.337 135.038 164.941 140.086C166.776 143.643 169.034 148.371 169.376 150.699C169.475 151.375 169.409 152.401 168.528 153.445C167.255 154.954 164.612 156.136 160.208 157.162C156.978 157.914 152.829 158.561 147.874 159.086C139.486 159.973 131.544 160.209 131.465 160.211L130.203 160.247ZM129.359 98.1669C129.07 98.1669 128.919 98.2751 128.836 98.3332C127.859 99.0282 124.932 103.35 128.244 129.808C129.745 141.79 131.923 153.439 132.647 157.184C135.2 157.081 141.261 156.787 147.575 156.119C162.233 154.566 165.508 152.39 166.236 151.527C166.438 151.289 166.421 151.178 166.414 151.13C165.988 148.234 160.458 137.136 152.905 125.235C144.156 111.452 136.052 101.753 130.668 98.625C130.057 98.2701 129.642 98.1669 129.359 98.1669Z" fill="#00227B"/>
<path d="M85.1334 96.4903L83.292 110.362L82.2446 118.249L80.0108 135.088C80.0108 135.088 75.9283 137.853 69.1372 140.045C66.5998 140.865 63.6774 141.598 60.4521 142.079C55.1799 142.869 49.084 142.97 42.4797 141.625C25.4881 138.158 15.2907 125.587 10.8758 119.267C2.34294 107.067 1.02981 103.769 3.40183 98.6332C5.21273 94.6973 8.31537 93.9786 8.31537 93.9786C8.31537 93.9786 8.16233 90.8334 10.6619 89.7149C18.1531 86.364 27.8033 95.3127 27.8033 95.3127C27.8033 95.3127 28.1629 85.6896 33.3339 87.9112C36.8965 89.4428 37.7044 99.9198 37.7044 99.9198C37.7044 99.9198 42.4863 106.04 50.0829 106.852C54.0527 107.276 59.5463 106.129 65.002 104.463C65.0654 104.444 65.1295 104.426 65.1929 104.403C68.1005 103.509 70.9893 102.472 73.6344 101.447C74.8209 100.989 75.9579 100.53 77.0242 100.091C81.7913 98.1227 85.1334 96.4903 85.1334 96.4903Z" fill="white"/>
<path opacity="0.35" d="M10.8742 119.267C15.2933 125.586 25.4889 138.159 42.4789 141.625C53.1214 143.793 62.4474 142.2 69.1389 140.042C75.9299 137.853 80.0117 135.086 80.0117 135.086L80.3111 121.798C80.3111 121.798 75.6839 117.357 71.3743 119.168C66.1959 121.343 67.8554 128.739 60.4596 130.796C39.8996 136.514 23.1975 126.067 17.8233 121.48C10.3674 115.118 8.42238 111.11 7.37336 109.457C5.2021 106.035 3.52531 103.347 2.57996 100.939C1.6165 105.012 3.67341 108.968 10.8742 119.267Z" fill="#00227B"/>
<path d="M52.7316 144.148C49.1838 144.148 45.6509 143.793 42.1789 143.084C34.5412 141.526 27.4152 138.019 21.0002 132.658C16.8715 129.208 13.0515 124.988 9.64686 120.119C5.49192 114.175 2.85085 110.093 1.64633 106.813C0.491994 103.67 0.606358 101.12 2.03961 98.0095C3.45064 94.9463 5.58407 93.5376 6.87333 92.9337C7.08396 91.3586 7.90425 89.3157 10.0484 88.3569C16.1401 85.6313 23.1698 89.8492 26.6492 92.4453C26.683 92.2691 26.7208 92.0888 26.7611 91.9061C27.3379 89.3296 28.3334 87.5809 29.7198 86.7098C30.5713 86.1746 31.9922 85.7116 33.9299 86.5451C35.8954 87.3908 37.3295 89.8811 38.3152 94.158C38.8195 96.3493 39.0622 98.4061 39.1536 99.3174C40.2116 100.511 44.3468 104.739 50.2444 105.369C61.0102 106.518 84.2401 95.2651 84.4737 95.1512C84.969 94.9094 85.5581 94.9586 86.0057 95.2798C86.4533 95.6003 86.6878 96.1411 86.6162 96.6852L81.497 135.281C81.441 135.702 81.2082 136.079 80.8552 136.318C80.6841 136.434 76.5785 139.19 69.7521 141.411C65.7534 142.713 61.6396 143.56 57.5258 143.931C55.9272 144.076 54.3278 144.148 52.7316 144.148ZM8.66202 95.4265C8.46867 95.479 6.18386 96.1608 4.75966 99.2518C2.8418 103.415 3.31324 105.841 12.1028 118.414C20.3666 130.235 30.9737 137.755 42.7787 140.163C53.5346 142.356 62.8771 140.511 68.8207 138.577C73.8593 136.937 77.3338 134.981 78.619 134.2L83.289 98.9953C80.8495 100.105 76.8591 101.848 72.3808 103.52C62.4122 107.24 54.856 108.859 49.9252 108.333C41.7905 107.465 36.7355 101.106 36.524 100.836C36.3438 100.605 36.2352 100.326 36.213 100.034C36.2114 100.01 36.0081 97.4654 35.3894 94.7923C34.347 90.286 33.0997 89.4345 32.7426 89.2813C31.8491 88.8969 31.4632 89.1387 31.3176 89.2297C30.0596 90.018 29.3783 93.2943 29.2961 95.3683C29.273 95.9502 28.911 96.4664 28.3704 96.6885C27.8291 96.9106 27.2087 96.7992 26.7801 96.4017C26.6912 96.3198 17.7667 88.1709 11.2743 91.0759C9.7785 91.7454 9.80566 93.7646 9.80977 93.9097C9.8542 94.6456 9.38522 95.2741 8.66202 95.4265Z" fill="#00227B"/>
<path d="M29.0353 95.311C29.0699 95.7298 29.0074 96.1108 28.9234 96.4411C28.8815 96.6115 28.8296 96.759 28.777 96.9106C28.7235 97.0524 28.6651 97.1966 28.6075 97.3253C28.3714 97.8547 28.1163 98.2931 27.8736 98.7184C27.6301 99.1412 27.3956 99.5436 27.1775 99.9468L27.0179 100.25C26.9677 100.352 26.9143 100.452 26.8657 100.555L26.7242 100.863L26.5893 101.174L26.4667 101.491L26.3531 101.812C26.3145 101.919 26.2857 102.029 26.2511 102.138C26.2149 102.247 26.1878 102.358 26.1581 102.469C26.0446 102.915 25.9467 103.374 25.8899 103.847C25.8282 104.319 25.7887 104.803 25.7772 105.295C25.7649 105.543 25.7698 105.79 25.7673 106.043C25.7632 106.169 25.7739 106.294 25.7747 106.421C25.7772 106.548 25.7813 106.675 25.7805 106.803V106.812C25.7805 106.911 25.6999 106.992 25.5995 106.992C25.5295 106.992 25.4695 106.952 25.4399 106.894C25.1996 106.43 24.9824 105.949 24.8146 105.445C24.6377 104.944 24.511 104.421 24.418 103.886C24.2353 102.816 24.2395 101.683 24.4402 100.577L24.5233 100.164C24.5554 100.028 24.5908 99.8927 24.6245 99.7558C24.6607 99.6206 24.701 99.4879 24.7389 99.3527C24.7784 99.2191 24.8253 99.0888 24.8689 98.9568C25.0491 98.4324 25.272 97.9341 25.5016 97.467C25.7303 97.0008 25.9738 96.5607 26.1713 96.1788C26.3795 95.792 26.4971 95.4782 26.5662 95.3085L26.711 94.9537C26.9628 94.3383 27.6679 94.0425 28.2858 94.2932C28.7227 94.4719 28.9983 94.8742 29.0353 95.311Z" fill="#00227B"/>
<path d="M40.8353 142.648C40.4576 142.648 40.0931 142.44 39.9138 142.08C39.6604 141.574 39.8677 140.959 40.3762 140.707C44.5254 138.651 47.3606 132.234 48.5734 122.15C49.5138 114.336 49.123 107.068 49.1188 106.996C49.0876 106.431 49.5212 105.948 50.0881 105.916C50.6525 105.884 51.1404 106.317 51.1725 106.881C51.1766 106.955 51.5773 114.378 50.6187 122.367C50.0519 127.094 49.1263 131.106 47.8674 134.289C46.2384 138.41 44.0259 141.186 41.2927 142.541C41.1455 142.614 40.9891 142.648 40.8353 142.648Z" fill="#00227B"/>
<g opacity="0.35">
<g opacity="0.35">
<g opacity="0.35">
<g opacity="0.35">
<path opacity="0.35" d="M173.569 208.583V208.374C171.924 208.444 173.569 208.583 173.569 208.583Z" fill="#00227B"/>
</g>
</g>
</g>
</g>
<path d="M152.81 183.418H54.0049C54.0049 183.418 54.6071 166.434 60.452 142.079C62.7944 132.31 65.9827 121.356 70.312 109.836C71.352 107.071 72.4603 104.272 73.6352 101.446C76.9204 93.5639 80.7521 85.4913 85.2205 77.4186H121.596C125.289 84.0932 128.548 90.7646 131.422 97.3351C133.281 101.584 134.98 105.788 136.53 109.917C143.291 127.919 147.262 144.534 149.585 157.395C152.451 173.262 152.81 183.418 152.81 183.418Z" fill="white"/>
<path d="M139.245 122.584C141.155 124.707 142.028 127.179 142.834 129.661C143.239 130.902 143.638 132.146 144.019 133.396C144.21 134.021 144.406 134.644 144.576 135.274C144.751 135.903 144.922 136.534 145.093 137.164L145.593 139.058C145.758 139.69 145.924 140.321 146.079 140.956L146.988 144.766C147.136 145.402 147.298 146.034 147.443 146.671L147.876 148.58L148.321 150.487C148.471 151.122 148.626 151.756 148.766 152.394L149.623 156.215C149.77 156.851 149.897 157.492 150.033 158.13L150.434 160.047L150.635 161.005L150.735 161.484L150.829 161.965L151.205 163.886C151.33 164.527 151.459 165.167 151.595 165.806C151.725 166.446 151.856 167.086 151.993 167.725C152.565 170.276 152.983 172.86 153.157 175.477C153.179 175.804 153.204 176.13 153.22 176.459L153.262 177.443C153.283 178.1 153.302 178.756 153.292 179.418C153.288 180.077 153.273 180.738 153.23 181.401C153.191 182.064 153.136 182.727 153.036 183.395C153.017 183.523 152.896 183.612 152.767 183.593C152.679 183.58 152.61 183.52 152.58 183.443L152.579 183.44C152.107 182.19 151.721 180.935 151.357 179.679C151.177 179.052 151.004 178.422 150.837 177.794L150.597 176.849C150.521 176.533 150.443 176.219 150.364 175.903C150.058 174.642 149.788 173.377 149.546 172.107C149.429 171.471 149.323 170.834 149.226 170.195C149.121 169.556 149.025 168.917 148.925 168.278C148.828 167.638 148.726 166.999 148.622 166.361C148.512 165.724 148.39 165.088 148.265 164.453L147.893 162.548L147.8 162.072L147.7 161.597L147.501 160.647L147.103 158.747C146.968 158.114 146.842 157.479 146.696 156.848L145.846 153.059C145.709 152.426 145.549 151.798 145.399 151.169L144.934 149.283L144.458 147.401C144.38 147.087 144.292 146.775 144.208 146.463L143.953 145.526L142.925 141.781C142.569 140.536 142.206 139.294 141.859 138.047C141.687 137.423 141.514 136.799 141.346 136.174L141.221 135.705L141.088 135.238L140.828 134.303C140.48 133.057 140.15 131.805 139.825 130.551L139.586 129.608C139.506 129.295 139.418 128.983 139.334 128.67C139.167 128.044 139.027 127.41 138.922 126.765C138.818 126.119 138.744 125.464 138.716 124.793C138.702 124.458 138.7 124.119 138.712 123.775C138.726 123.43 138.748 123.082 138.809 122.722L138.811 122.709C138.834 122.572 138.963 122.481 139.1 122.504C139.158 122.514 139.209 122.544 139.245 122.584Z" fill="#00227B"/>
<path d="M53.7725 183.41C53.6202 183.073 53.5158 182.738 53.4178 182.401C53.3199 182.063 53.2467 181.73 53.1817 181.394C53.0501 180.722 52.9793 180.054 52.9398 179.388C52.9217 179.054 52.9094 178.721 52.9102 178.389C52.911 178.057 52.9242 177.727 52.9398 177.397L52.9958 176.406C53.013 176.076 53.0336 175.746 53.0608 175.416C53.1636 174.099 53.264 172.779 53.4187 171.468C53.4886 170.811 53.5668 170.155 53.6441 169.499C53.6819 169.171 53.733 168.845 53.7774 168.517L53.9164 167.536L54.2069 165.577C54.3089 164.925 54.4274 164.276 54.5384 163.625C54.7655 162.324 54.9794 161.022 55.2386 159.728C55.4904 158.433 55.7208 157.134 55.9783 155.841C56.2399 154.548 56.495 153.254 56.7467 151.96C56.8109 151.636 56.8685 151.311 56.9384 150.989L57.1458 150.022L57.5596 148.088L57.9735 146.155C58.0088 145.993 58.0409 145.832 58.078 145.671L58.1915 145.19L58.4186 144.227L59.3261 140.376C59.3993 140.055 59.4816 139.736 59.563 139.416C59.642 139.096 59.7227 138.776 59.7984 138.456C59.9514 137.814 60.1028 137.172 60.2484 136.529C60.3973 135.886 60.543 135.242 60.6968 134.601C60.8449 133.957 61.0308 133.325 61.2168 132.691C61.4069 132.06 61.6084 131.431 61.8199 130.805C62.0322 130.18 62.2576 129.558 62.4855 128.937L62.8376 128.01C62.8969 127.856 62.9627 127.703 63.0269 127.55C63.0919 127.398 63.1544 127.244 63.2219 127.092C63.4876 126.483 63.7567 125.877 64.043 125.276C64.326 124.674 64.6214 124.076 64.9316 123.485C65.2417 122.893 65.5634 122.305 65.9205 121.73C65.9888 121.619 66.1344 121.585 66.2455 121.654C66.3212 121.701 66.3615 121.783 66.3574 121.867V121.87C66.2093 124.574 65.7008 127.148 65.199 129.72C65.0698 130.362 64.9381 131.002 64.7933 131.64C64.6477 132.277 64.4914 132.91 64.3252 133.54C63.978 134.797 63.6291 136.054 63.2655 137.307C63.0836 137.934 62.9067 138.562 62.7315 139.191C62.6426 139.504 62.5595 139.82 62.4748 140.135C62.3917 140.45 62.3061 140.765 62.2354 141.084L61.3377 144.893L61.1131 145.846L61.0012 146.322C60.9642 146.481 60.9321 146.64 60.8976 146.799L60.4878 148.713L60.0781 150.626L59.8732 151.584C59.8049 151.902 59.7473 152.224 59.684 152.543C58.6325 157.656 57.9258 162.83 57.2387 167.994L56.9722 169.929C56.8891 170.575 56.806 171.221 56.7155 171.866L56.1856 175.736C56.0893 176.381 56.012 177.026 55.9248 177.671C55.8795 177.993 55.8318 178.316 55.7718 178.637C55.7125 178.958 55.6541 179.279 55.5817 179.6C55.4377 180.241 55.2592 180.88 55.0477 181.517C54.9424 181.836 54.8165 182.156 54.6874 182.474C54.5549 182.792 54.4109 183.111 54.2332 183.428L54.2315 183.432C54.1624 183.555 54.0069 183.599 53.8835 183.53C53.8317 183.5 53.7947 183.458 53.7725 183.41Z" fill="#00227B"/>
<path d="M82.4621 161.99C76.827 164.263 68.1057 163.787 62.1604 163.07C58.5946 162.641 56.0909 159.363 56.6166 155.824C57.0963 152.594 59.9505 150.245 63.2242 150.398C68.7853 150.658 77.1273 150.779 82.4102 149.612" fill="white"/>
<g opacity="0.35">
<g opacity="0.35">
<g opacity="0.35">
<g opacity="0.35">
<path opacity="0.35" d="M82.4639 161.989C76.8271 164.265 68.1059 163.785 62.1606 163.073C58.5947 162.642 56.0919 159.363 56.6176 155.826C56.7221 155.104 56.95 154.426 57.2734 153.808C58.2122 155.593 59.9901 156.909 62.1606 157.172C68.0952 157.889 76.8016 158.364 82.4392 156.103L82.4639 161.989Z" fill="#00227B"/>
</g>
</g>
</g>
</g>
<path d="M71.2586 165.153C67.998 165.153 64.7563 164.885 61.9803 164.551C59.8543 164.294 57.9677 163.219 56.6678 161.523C55.3653 159.823 54.8215 157.722 55.1358 155.606C55.4221 153.678 56.4111 151.933 57.92 150.694C59.4306 149.452 61.3394 148.819 63.2943 148.91C71.4865 149.292 78.1599 149.025 82.0853 148.158C82.8735 147.984 84.8317 147.978 85.9877 151.679C87.1618 155.44 87.0318 161.757 83.0241 163.373C79.7191 164.705 75.4736 165.153 71.2586 165.153ZM62.9208 151.882C60.5068 151.882 58.4548 153.633 58.0977 156.042C57.9027 157.354 58.2401 158.659 59.048 159.714C59.8535 160.765 61.0226 161.431 62.3407 161.59C70.8423 162.615 77.7897 162.266 81.901 160.608C83.122 160.116 83.4725 158.145 83.5671 157.321C83.8962 154.436 83.0151 151.771 82.463 151.126C77.1052 152.248 69.0314 152.162 63.1552 151.888C63.0763 151.883 62.9981 151.882 62.9208 151.882Z" fill="#00227B"/>
<path d="M125.566 161.99C131.201 164.263 139.923 163.787 145.868 163.07C149.434 162.641 151.937 159.363 151.412 155.824C150.932 152.594 148.078 150.245 144.804 150.398C139.243 150.658 130.901 150.779 125.618 149.612" fill="white"/>
<g opacity="0.35">
<g opacity="0.35">
<g opacity="0.35">
<g opacity="0.35">
<path opacity="0.35" d="M145.866 163.073C139.92 163.785 131.2 164.265 125.562 161.989L125.587 156.048C131.224 158.309 139.93 157.834 145.866 157.117C148.026 156.859 149.794 155.553 150.738 153.777C151.071 154.401 151.304 155.089 151.414 155.825C151.935 159.363 149.432 162.642 145.866 163.073Z" fill="#00227B"/>
</g>
</g>
</g>
</g>
<path d="M136.77 165.153C132.555 165.153 128.31 164.705 125.004 163.373C120.997 161.757 120.867 155.439 122.041 151.679C123.196 147.978 125.155 147.984 125.943 148.157C129.869 149.025 136.543 149.292 144.734 148.91C146.691 148.819 148.598 149.452 150.108 150.693C151.617 151.933 152.606 153.677 152.893 155.606C153.207 157.722 152.662 159.823 151.361 161.522C150.061 163.219 148.174 164.294 146.048 164.55C143.272 164.885 140.03 165.153 136.77 165.153ZM125.566 151.126C125.014 151.771 124.133 154.436 124.462 157.321C124.556 158.145 124.906 160.116 126.128 160.609C130.24 162.266 137.187 162.615 145.689 161.59C147.006 161.431 148.176 160.765 148.981 159.714C149.789 158.659 150.127 157.355 149.932 156.042C149.563 153.556 147.389 151.771 144.875 151.888C138.997 152.162 130.924 152.247 125.566 151.126Z" fill="#00227B"/>
<path d="M127.744 145.522V165.358C127.744 169.038 124.719 172.051 121.024 172.051H84.3464C80.6563 172.051 77.6318 169.038 77.6318 165.358V145.522C77.6318 141.842 80.6563 138.834 84.3464 138.834H121.024C123.2 138.834 125.141 139.878 126.373 141.485C127.232 142.608 127.744 144.008 127.744 145.522Z" fill="white"/>
<g opacity="0.35">
<g opacity="0.35">
<g opacity="0.35">
<g opacity="0.35">
<path opacity="0.35" d="M127.743 145.522V165.358C127.743 169.038 124.72 172.049 121.025 172.049H84.3477C80.6527 172.049 77.6299 169.038 77.6299 165.358V157.939C83.1383 163.532 93.9716 167.044 103.907 167.096C107.1 167.113 109.675 164.598 109.903 161.426C109.905 161.394 109.908 161.362 109.91 161.331C110.154 158.548 112.456 156.295 115.253 156.094C118.439 155.865 121.128 158.209 121.444 161.255C126.253 155.342 124.844 145.064 126.374 141.485C127.233 142.609 127.743 144.007 127.743 145.522Z" fill="#00227B"/>
</g>
</g>
</g>
</g>
<path d="M121.025 173.541H84.3466C79.8181 173.541 76.1338 169.871 76.1338 165.361V145.522C76.1338 141.012 79.8181 137.342 84.3466 137.342H121.025C125.554 137.342 129.238 141.012 129.238 145.522V165.361C129.238 169.871 125.554 173.541 121.025 173.541ZM84.3466 140.323C81.4686 140.323 79.127 142.655 79.127 145.522V165.361C79.127 168.227 81.4686 170.559 84.3466 170.559H121.025C123.903 170.559 126.245 168.227 126.245 165.361V145.522C126.245 142.655 123.903 140.323 121.025 140.323H84.3466Z" fill="#00227B"/>
<path d="M115.68 161.21C118.879 161.21 121.472 158.627 121.472 155.441C121.472 152.255 118.879 149.672 115.68 149.672C112.481 149.672 109.888 152.255 109.888 155.441C109.888 158.627 112.481 161.21 115.68 161.21Z" fill="#22A7F0"/>
<g opacity="0.7">
<g opacity="0.7">
<g opacity="0.7">
<g opacity="0.7">
<path opacity="0.7" d="M121.472 155.441C121.472 155.836 121.434 156.219 121.359 156.594C120.825 153.956 118.485 151.971 115.681 151.971C112.874 151.971 110.534 153.956 109.999 156.594C109.925 156.219 109.887 155.837 109.887 155.441C109.887 152.253 112.481 149.673 115.681 149.673C118.877 149.673 121.472 152.253 121.472 155.441Z" fill="white"/>
</g>
</g>
</g>
</g>
<g opacity="0.35">
<g opacity="0.35">
<g opacity="0.35">
<g opacity="0.35">
<path opacity="0.35" d="M121.471 155.44C121.471 158.625 118.878 161.208 115.68 161.208C112.482 161.208 109.89 158.625 109.89 155.44C109.89 154.703 110.029 154 110.287 153.353C111.121 155.505 113.223 157.028 115.681 157.028C118.139 157.028 120.24 155.505 121.075 153.353C121.332 154 121.471 154.703 121.471 155.44Z" fill="#00227B"/>
</g>
</g>
</g>
</g>
<path d="M115.68 162.328C111.867 162.328 108.766 159.238 108.766 155.441C108.766 151.643 111.867 148.554 115.68 148.554C119.493 148.554 122.595 151.643 122.595 155.441C122.595 159.238 119.493 162.328 115.68 162.328ZM115.68 150.79C113.106 150.79 111.011 152.877 111.011 155.441C111.011 158.005 113.106 160.091 115.68 160.091C118.255 160.091 120.349 158.005 120.349 155.441C120.349 152.877 118.255 150.79 115.68 150.79Z" fill="#00227B"/>
<path d="M99.2677 173.168C98.6474 173.168 98.1455 172.667 98.1455 172.05V158.463L90.8105 152.963V138.833C90.8105 138.215 91.3133 137.715 91.9328 137.715C92.5523 137.715 93.055 138.215 93.055 138.833V151.847L100.39 157.347V172.05C100.39 172.667 99.8873 173.168 99.2677 173.168Z" fill="#00227B"/>
<path d="M103.406 182.73C109.894 182.73 116.133 180.332 121.007 176.065C127.756 170.155 139.12 163.107 151.662 167.628C156.695 169.441 160.124 172.767 162.464 176.447C168.49 162.541 181.131 161.707 186.602 169.589C186.602 169.589 177.405 213.29 174.408 214.263C170.114 215.656 159.796 214.191 159.796 214.191C159.796 214.191 123.903 209.351 103.406 209.351C82.9094 209.351 47.0155 214.191 47.0155 214.191C47.0155 214.191 36.6981 215.655 32.4041 214.263C29.4068 213.29 20.21 169.589 20.21 169.589C25.6805 161.707 38.3222 162.541 44.3482 176.447C46.6873 172.766 50.1174 169.441 55.1502 167.628C67.6924 163.107 79.0555 170.155 85.8055 176.065C90.6787 180.332 96.9177 182.73 103.406 182.73Z" fill="white"/>
<g opacity="0.35">
<path d="M186.603 169.587C186.603 169.587 177.405 213.29 174.408 214.263C170.116 215.657 159.796 214.192 159.796 214.192C159.796 214.192 123.904 209.351 103.405 209.351C82.9113 209.351 47.015 214.192 47.015 214.192C47.015 214.192 36.6984 215.657 32.4069 214.263C29.4096 213.29 20.2119 169.587 20.2119 169.587C21.1137 168.29 22.2063 167.228 23.4338 166.423C26.3826 179.237 30.5655 195.967 32.4069 196.564C36.6992 197.954 47.015 196.489 47.015 196.489C47.015 196.489 82.9113 186.806 103.405 186.806C123.904 186.806 159.796 196.489 159.796 196.489C159.796 196.489 170.116 197.954 174.408 196.564C176.249 195.967 180.432 179.237 183.381 166.423C184.609 167.229 185.701 168.291 186.603 169.587Z" fill="#00227B"/>
</g>
<path d="M37.9382 216.35C35.6871 216.35 33.4879 216.182 31.9411 215.681C30.8863 215.338 29.9994 214.174 28.3349 209.009C27.3608 205.986 26.1916 201.777 24.8612 196.497C22.4653 186.993 20.1303 176.333 19.2376 172.192C18.7703 170.023 19.4836 167.781 21.1004 166.34C24.2038 163.573 28.3637 162.507 32.5121 163.417C35.1268 163.99 37.6708 165.35 39.8692 167.349C41.69 169.005 43.273 171.073 44.5927 173.519C47.2708 170.115 50.6424 167.667 54.6427 166.226C59.1753 164.592 63.9177 164.267 68.7391 165.262C72.6316 166.065 76.5899 167.729 80.5029 170.21C81.2006 170.653 81.4055 171.574 80.962 172.269C80.5186 172.964 79.593 173.168 78.8953 172.726C70.8412 167.619 63.0242 166.376 55.6613 169.03C51.5088 170.527 48.1281 173.29 45.6145 177.246C45.3175 177.713 44.7844 177.977 44.2323 177.935C43.6794 177.891 43.1956 177.547 42.9751 177.039C40.4575 171.228 36.4095 167.325 31.8687 166.33C28.6714 165.629 25.4742 166.443 23.0972 168.563C22.2794 169.292 21.9223 170.443 22.165 171.568C23.0075 175.477 25.2158 185.563 27.5163 194.778C28.7809 199.843 29.9015 203.965 30.8476 207.025C32.1723 211.312 32.8642 212.569 33.1102 212.92C36.4918 213.864 44.0974 213.102 46.8059 212.717C46.8092 212.717 46.8125 212.717 46.8158 212.716C47.1753 212.667 83.0453 207.862 103.407 207.862C123.769 207.862 159.639 212.667 159.998 212.716C160.001 212.717 160.006 212.717 160.009 212.717C162.718 213.102 170.323 213.864 173.705 212.92C173.946 212.576 174.619 211.355 175.9 207.243C176.824 204.278 177.917 200.283 179.151 195.367C181.351 186.603 183.46 177.067 184.521 172.163C184.869 170.556 184.265 168.909 182.981 167.967C180.532 166.168 177.496 165.631 174.434 166.455C170.047 167.636 166.285 171.395 163.84 177.04C163.62 177.547 163.136 177.892 162.582 177.936C162.029 177.979 161.497 177.713 161.2 177.246C158.687 173.292 155.307 170.527 151.154 169.031C143.726 166.354 135.843 167.64 127.72 172.855C127.024 173.301 126.099 173.101 125.65 172.409C125.203 171.717 125.403 170.795 126.098 170.348C130.035 167.821 134.019 166.119 137.938 165.291C142.807 164.262 147.597 164.577 152.173 166.227C156.173 167.668 159.545 170.117 162.224 173.521C165.035 168.316 169.029 164.821 173.654 163.577C177.558 162.525 181.605 163.251 184.758 165.566C186.988 167.204 188.044 170.039 187.449 172.791C186.325 177.986 184.097 188.052 181.805 197.088C180.505 202.213 179.363 206.295 178.412 209.222C176.787 214.215 175.915 215.345 174.873 215.682C170.321 217.159 160.113 215.744 159.593 215.67C159.031 215.595 123.509 210.844 103.408 210.844C83.3036 210.844 47.785 215.595 47.2222 215.67C46.8767 215.717 42.3112 216.35 37.9382 216.35Z" fill="#00227B"/>
<path d="M171.742 214.263H174.408C177.538 214.263 180.376 212.435 181.65 209.588C185.64 200.688 192.916 181.131 186.101 169.197C185.903 168.848 185.691 168.513 185.466 168.192C185.466 168.192 178.923 162.265 174.223 170.65C169.833 178.483 160.617 211.976 171.742 214.263Z" fill="#AFAFB2"/>
<g opacity="0.7">
<g opacity="0.7">
<g opacity="0.7">
<g opacity="0.7">
<path opacity="0.7" d="M171.816 176.233C171.934 176.045 172.052 175.868 172.166 175.703C177.945 167.318 185.991 173.246 185.991 173.246C186.267 173.567 186.529 173.902 186.771 174.25C187.578 175.399 188.223 176.618 188.727 177.894C188.402 174.759 187.588 171.796 186.102 169.197C185.904 168.849 185.691 168.514 185.467 168.193C185.467 168.193 178.924 162.265 174.224 170.65C173.51 171.92 172.674 173.859 171.816 176.233Z" fill="white"/>
</g>
</g>
</g>
</g>
<path d="M188.692 178.788C188.625 178.788 188.556 178.782 188.487 178.771L172.134 176.052C171.462 175.94 171.008 175.307 171.119 174.636C171.231 173.967 171.868 173.514 172.54 173.626L188.893 176.345C189.565 176.456 190.019 177.09 189.907 177.76C189.807 178.363 189.284 178.788 188.692 178.788Z" fill="#00227B"/>
<path d="M188.588 187.588C188.533 187.588 188.478 187.585 188.422 187.576L169.292 185.015C168.616 184.925 168.142 184.306 168.233 183.633C168.323 182.96 168.944 182.488 169.621 182.579L188.751 185.14C189.426 185.23 189.9 185.849 189.81 186.522C189.727 187.14 189.197 187.588 188.588 187.588Z" fill="#00227B"/>
<path d="M186.901 196.207C186.851 196.207 186.8 196.204 186.749 196.198L167.33 193.831C166.653 193.748 166.172 193.135 166.254 192.462C166.337 191.788 166.952 191.308 167.629 191.391L187.049 193.758C187.725 193.841 188.206 194.454 188.124 195.127C188.048 195.751 187.515 196.207 186.901 196.207Z" fill="#00227B"/>
<path d="M183.82 205.607C183.783 205.607 183.746 205.606 183.708 205.603L166.346 204.042C165.667 203.982 165.167 203.383 165.228 202.707C165.289 202.031 165.889 201.532 166.568 201.594L183.93 203.154C184.609 203.215 185.11 203.813 185.048 204.489C184.99 205.127 184.451 205.607 183.82 205.607Z" fill="#00227B"/>
<g opacity="0.35">
<g opacity="0.35">
<g opacity="0.35">
<g opacity="0.35">
<path opacity="0.35" d="M171.742 214.263H174.407C177.537 214.263 180.375 212.435 181.649 209.588C182.681 207.281 183.936 204.264 185.109 200.845C183.509 203.49 180.257 205.167 176.687 205.167H173.51C168.988 204.387 167.286 199.97 167.219 194.181C165.69 203.953 166.11 213.105 171.742 214.263Z" fill="#00227B"/>
</g>
</g>
</g>
</g>
<path d="M174.409 215.492H171.743C171.659 215.492 171.576 215.484 171.494 215.467C169.339 215.023 167.711 213.632 166.653 211.33C164.161 205.903 165.372 196.449 166.828 189.474C168.607 180.95 171.353 173.25 173.147 170.051C174.795 167.109 176.873 165.415 179.32 165.017C183.073 164.408 186.168 167.165 186.298 167.282C186.366 167.344 186.427 167.413 186.479 167.488C186.725 167.839 186.96 168.21 187.176 168.589C190.291 174.044 190.952 181.505 189.141 190.764C187.668 198.292 184.868 205.428 182.779 210.089C181.308 213.371 178.024 215.492 174.409 215.492ZM171.877 213.034H174.409C177.05 213.034 179.451 211.485 180.523 209.088C182.561 204.544 185.289 197.595 186.717 190.296C188.413 181.63 187.844 174.735 185.03 169.805C184.877 169.536 184.713 169.274 184.543 169.023C184.08 168.647 181.98 167.068 179.703 167.446C178.043 167.722 176.562 169.002 175.302 171.249C173.642 174.211 170.955 181.781 169.245 189.974C167.294 199.326 167.171 206.547 168.899 210.308C169.6 211.835 170.575 212.728 171.877 213.034Z" fill="#00227B"/>
<path d="M35.0715 214.263H32.4058C29.276 214.263 26.4383 212.435 25.1638 209.588C21.1734 200.688 13.8977 181.131 20.7127 169.197C20.911 168.848 21.1232 168.513 21.3478 168.192C21.3478 168.192 27.8904 162.265 32.5909 170.65C36.9811 178.483 46.1961 211.976 35.0715 214.263Z" fill="#AFAFB2"/>
<g opacity="0.7">
<g opacity="0.7">
<g opacity="0.7">
<g opacity="0.7">
<path opacity="0.7" d="M34.997 176.233C34.8793 176.045 34.7617 175.868 34.6473 175.703C28.8682 167.318 20.8224 173.246 20.8224 173.246C20.5468 173.567 20.2844 173.902 20.0425 174.25C19.2353 175.399 18.5903 176.618 18.0859 177.894C18.4118 174.759 19.2255 171.796 20.7114 169.197C20.9097 168.849 21.1219 168.514 21.3465 168.193C21.3465 168.193 27.8891 162.265 32.5896 170.65C33.3021 171.92 34.1397 173.859 34.997 176.233Z" fill="white"/>
</g>
</g>
</g>
</g>
<path d="M18.1217 178.788C17.5293 178.788 17.0068 178.362 16.9056 177.761C16.7937 177.091 17.2471 176.458 17.9201 176.346L34.2733 173.627C34.9455 173.515 35.5815 173.967 35.6934 174.637C35.8053 175.307 35.3519 175.94 34.6789 176.052L18.3257 178.771C18.2574 178.783 18.1891 178.788 18.1217 178.788Z" fill="#00227B"/>
<path d="M18.2251 187.588C17.6162 187.588 17.0864 187.14 17.0033 186.523C16.9128 185.85 17.3867 185.231 18.0622 185.141L37.193 182.579C37.8693 182.488 38.4897 182.96 38.581 183.633C38.6715 184.306 38.1976 184.925 37.5221 185.015L18.3913 187.577C18.3353 187.585 18.2802 187.588 18.2251 187.588Z" fill="#00227B"/>
<path d="M19.9134 196.207C19.2988 196.207 18.7665 195.751 18.69 195.127C18.6069 194.454 19.0882 193.841 19.7653 193.758L39.185 191.39C39.8613 191.308 40.4767 191.787 40.5598 192.462C40.6429 193.135 40.1616 193.748 39.4845 193.831L20.0648 196.198C20.0138 196.205 19.9628 196.207 19.9134 196.207Z" fill="#00227B"/>
<path d="M22.9933 205.607C22.3614 205.607 21.8234 205.127 21.7658 204.489C21.7049 203.813 22.2051 203.215 22.8839 203.154L40.2458 201.594C40.9254 201.533 41.5244 202.031 41.5861 202.707C41.647 203.383 41.1467 203.981 40.468 204.042L23.106 205.603C23.0682 205.606 23.0303 205.607 22.9933 205.607Z" fill="#00227B"/>
<g opacity="0.35">
<g opacity="0.35">
<g opacity="0.35">
<g opacity="0.35">
<path opacity="0.35" d="M35.0705 214.263H32.4048C29.275 214.263 26.4373 212.435 25.1628 209.588C24.1311 207.281 22.8764 204.264 21.7031 200.845C23.3034 203.49 26.555 205.167 30.1249 205.167H33.3024C37.8243 204.387 39.5258 199.97 39.5933 194.181C41.122 203.953 40.7015 213.105 35.0705 214.263Z" fill="#00227B"/>
</g>
</g>
</g>
</g>
<path d="M35.071 215.492H32.4052C28.7909 215.492 25.5056 213.371 24.0361 210.088C21.9471 205.429 19.1464 198.293 17.6737 190.765C15.8628 181.506 16.5235 174.045 19.6385 168.589C19.8548 168.21 20.0893 167.84 20.3345 167.489C20.3872 167.413 20.4481 167.345 20.5163 167.283C20.6463 167.165 23.7407 164.408 27.4942 165.018C29.9411 165.416 32.0185 167.109 33.6674 170.051C35.461 173.251 38.2074 180.95 39.9862 189.475C41.4416 196.45 42.6527 205.904 40.1606 211.331C39.1033 213.633 37.4751 215.024 35.3203 215.467C35.238 215.484 35.1541 215.492 35.071 215.492ZM22.2705 169.024C22.1002 169.274 21.9373 169.536 21.7842 169.804C18.9687 174.735 18.4002 181.629 20.0959 190.296C21.5242 197.596 24.2517 204.544 26.2897 209.088C27.3634 211.486 29.7634 213.034 32.4044 213.034H34.9361C36.2385 212.729 37.2143 211.836 37.9153 210.308C39.6423 206.547 39.5197 199.325 37.5689 189.974C35.8592 181.78 33.1721 174.211 31.5117 171.249C30.2521 169.002 28.7711 167.722 27.1108 167.446C24.8383 167.069 22.7386 168.643 22.2705 169.024Z" fill="#00227B"/>
<path d="M65.1622 213.141C64.9869 213.141 64.8092 213.1 64.643 213.013C64.0934 212.727 63.8811 212.051 64.1691 211.504C68.8564 202.584 68.9255 192.552 64.3748 181.688C60.9422 173.494 56.027 167.887 55.9777 167.831C55.5679 167.368 55.6124 166.662 56.0772 166.253C56.5421 165.845 57.2513 165.888 57.6611 166.351C57.8709 166.588 62.8395 172.246 66.4202 180.764C68.533 185.789 69.7112 190.763 69.9235 195.546C70.1901 201.56 68.923 207.278 66.1577 212.54C65.957 212.923 65.5662 213.141 65.1622 213.141Z" fill="#00227B"/>
<path d="M142.107 213.141C141.702 213.141 141.312 212.923 141.111 212.541C138.346 207.278 137.079 201.561 137.345 195.547C137.558 190.764 138.736 185.79 140.849 180.764C144.429 172.247 149.398 166.588 149.608 166.352C150.018 165.889 150.728 165.845 151.192 166.254C151.657 166.662 151.702 167.368 151.291 167.831C151.242 167.887 146.327 173.494 142.894 181.688C138.343 192.552 138.412 202.584 143.1 211.504C143.387 212.051 143.175 212.726 142.626 213.013C142.46 213.1 142.282 213.141 142.107 213.141Z" fill="#00227B"/>
<g opacity="0.35">
<path d="M140.603 105.726C139.308 107.202 137.947 108.603 136.528 109.919C133.161 113.042 129.47 115.7 125.523 117.806C118.854 121.369 111.457 123.367 103.666 123.403C96.0548 123.437 88.8104 121.596 82.244 118.249C77.9442 116.054 73.9365 113.217 70.3106 109.837C68.5071 108.152 66.7966 106.337 65.1914 104.403C68.099 103.509 70.9878 102.472 73.6329 101.447C76.9182 93.5647 80.7498 85.492 85.2182 77.4194H121.593C125.287 84.094 128.546 90.7654 131.42 97.3359C134.159 98.9273 137.314 101.924 140.603 105.726Z" fill="#00227B"/>
</g>
<path d="M158.953 69.7335C158.32 69.8015 157.751 69.3451 157.683 68.7141L154.133 35.8088C154.064 35.1778 154.523 34.6116 155.156 34.5436C161.802 33.8323 167.768 38.6213 168.482 45.2402L169.694 56.4613C170.408 63.0802 165.599 69.0222 158.953 69.7335Z" fill="white"/>
<path d="M158.827 70.0236C158.501 70.0236 158.185 69.9138 157.928 69.7065C157.628 69.4664 157.442 69.1247 157.4 68.7444L153.85 35.8392C153.809 35.4589 153.919 35.0852 154.16 34.7878C154.401 34.4903 154.745 34.3035 155.126 34.2625C161.918 33.5356 168.036 38.4467 168.765 45.2107L169.976 56.4318C170.329 59.7081 169.381 62.9253 167.304 65.4911C165.228 68.0569 162.273 69.6639 158.983 70.0162L158.953 69.7343L158.983 70.0162C158.932 70.0212 158.879 70.0236 158.827 70.0236ZM156.458 34.7566C156.038 34.7566 155.614 34.7788 155.187 34.8247C154.956 34.8492 154.749 34.9623 154.603 35.1418C154.457 35.3221 154.391 35.5474 154.415 35.7777L157.966 68.683C157.99 68.9132 158.104 69.1197 158.285 69.2648C158.466 69.4098 158.692 69.4762 158.923 69.4516C162.062 69.1156 164.881 67.5824 166.862 65.1346C168.843 62.6869 169.749 59.6171 169.411 56.4908L168.201 45.2697C167.549 39.2425 162.414 34.7566 156.458 34.7566Z" fill="#00227B"/>
<g opacity="0.35">
<g opacity="0.35">
<g opacity="0.35">
<g opacity="0.35">
<path opacity="0.35" d="M169.125 51.1994L169.695 56.462C170.408 63.0785 165.6 69.0221 158.954 69.7359C158.32 69.8047 157.752 69.3442 157.683 68.714L156.736 59.9669C156.957 60.3464 157.388 60.5791 157.853 60.5332L158.636 60.4472C163.887 59.8858 167.994 56.0548 169.125 51.1994Z" fill="#00227B"/>
</g>
</g>
</g>
</g>
<path d="M158.826 71.3176C158.204 71.3176 157.605 71.1078 157.114 70.7136C156.545 70.2572 156.188 69.6065 156.11 68.8829L152.56 35.9777C152.482 35.2541 152.692 34.5428 153.15 33.9757C153.608 33.4086 154.261 33.0538 154.988 32.9759C162.49 32.1729 169.251 37.5994 170.057 45.0722L171.267 56.2933C171.658 59.9129 170.61 63.4678 168.316 66.3032C166.022 69.1378 162.757 70.9136 159.122 71.302C159.024 71.3118 158.925 71.3176 158.826 71.3176ZM158.787 68.1659H158.786C158.786 68.1659 158.786 68.1659 158.787 68.1659ZM155.756 36.0744L159.212 68.1126C161.834 67.7258 164.179 66.3917 165.853 64.3242C167.616 62.1452 168.421 59.4131 168.121 56.6301L166.911 45.409C166.306 39.8071 161.35 35.7007 155.756 36.0744Z" fill="#00227B"/>
<path d="M46.1081 46.2153C46.7416 46.1473 47.3102 46.6037 47.3785 47.2347L50.9287 80.14C50.997 80.771 50.5387 81.3373 49.9052 81.4053C43.2597 82.1166 37.2939 77.3276 36.5797 70.7087L35.3694 59.4876C34.6536 52.8686 39.4627 46.9266 46.1081 46.2153Z" fill="white"/>
<path d="M48.6016 81.7585C42.3602 81.7593 36.9768 77.0572 36.2956 70.739L35.0853 59.5179C34.3555 52.754 39.2863 46.6603 46.0774 45.9335L46.1078 46.2153L46.0774 45.9335C46.8648 45.849 47.5757 46.4194 47.6604 47.2045L51.2106 80.1097C51.2954 80.8948 50.7227 81.602 49.9345 81.6864C49.4878 81.7347 49.0418 81.7585 48.6016 81.7585ZM46.2313 46.4915C46.2 46.4915 46.1696 46.4932 46.1375 46.4964C39.6582 47.1897 34.9536 53.0039 35.6505 59.4573L36.8608 70.6784C37.5569 77.1317 43.3936 81.8175 49.8736 81.1242C50.35 81.0734 50.6964 80.6457 50.6454 80.1712L47.0952 47.2659C47.0474 46.8218 46.669 46.4915 46.2313 46.4915Z" fill="#00227B"/>
<g opacity="0.35">
<g opacity="0.35">
<g opacity="0.35">
<g opacity="0.35">
<path opacity="0.35" d="M49.9472 71.0111L50.9312 80.1401C51.0003 80.7711 50.5379 81.3373 49.9052 81.4054C46.4167 81.7774 43.1125 80.6359 40.659 78.5069C38.4433 76.5844 36.9212 73.8522 36.5814 70.7104L36.0713 65.982C38.4055 69.9286 42.92 72.3682 47.7924 71.8478L48.9977 71.7183C49.4371 71.6708 49.7851 71.3881 49.9472 71.0111Z" fill="#00227B"/>
</g>
</g>
</g>
</g>
<path d="M48.6014 83.0516C41.705 83.0524 35.7581 77.8578 35.0052 70.8766L33.7949 59.6556C32.9886 52.1828 38.437 45.4499 45.9397 44.6469C47.4388 44.4862 48.7914 45.5712 48.9527 47.0651L52.5029 79.9712C52.6642 81.4659 51.5748 82.8115 50.0741 82.9721C49.5796 83.0262 49.0876 83.0516 48.6014 83.0516ZM45.8509 47.8371C40.3055 48.6566 36.3381 53.7176 36.942 59.3196L38.1523 70.5407C38.757 76.1426 43.7133 80.2482 49.3073 79.8753L45.8509 47.8371Z" fill="#00227B"/>
<path d="M102.536 114.37C133.808 114.37 159.159 89.1208 159.159 57.974C159.159 26.8271 133.808 1.57765 102.536 1.57765C71.2648 1.57765 45.9141 26.8271 45.9141 57.974C45.9141 89.1208 71.2648 114.37 102.536 114.37Z" fill="white"/>
<path d="M102.482 114.655C95.5396 114.655 88.7576 113.415 82.2915 110.96C75.4157 108.351 69.1865 104.485 63.7752 99.4714C58.3639 94.4571 54.0444 88.547 50.9352 81.9051C47.7166 75.0281 45.9443 67.6643 45.6671 60.0178C45.3898 52.3712 46.6248 44.8993 49.3374 37.8091C51.9571 30.9608 55.8389 24.7565 60.8725 19.3668C65.9062 13.9771 71.8416 9.67408 78.5109 6.57728C85.4155 3.37149 92.8088 1.60634 100.486 1.33018C108.163 1.05401 115.665 2.28405 122.784 4.98586C129.66 7.59507 135.889 11.4614 141.3 16.4749C146.711 21.4893 151.031 27.3993 154.14 34.0412C157.359 40.9182 159.131 48.2821 159.408 55.9286C159.685 63.5751 158.45 71.0471 155.738 78.1372C153.118 84.9856 149.236 91.1898 144.202 96.5795C139.167 101.969 133.234 106.271 126.565 109.368C119.66 112.574 112.267 114.339 104.59 114.615C103.885 114.642 103.182 114.655 102.482 114.655ZM102.563 1.85956C101.879 1.85956 101.196 1.87185 100.506 1.89644C69.4613 3.01256 45.1158 29.076 46.2356 59.9965C46.7778 74.9748 53.1443 88.8469 64.1619 99.056C74.6694 108.793 88.2096 114.087 102.486 114.088C103.179 114.088 103.872 114.075 104.568 114.05C119.606 113.51 133.534 107.169 143.784 96.1952C154.034 85.2216 159.38 70.9291 158.838 55.9507C157.744 25.717 132.697 1.85956 102.563 1.85956Z" fill="#00227B"/>
<g opacity="0.35">
<g opacity="0.35">
<g opacity="0.35">
<g opacity="0.35">
<path opacity="0.35" d="M158.299 48.1584C158.751 50.6938 159.028 53.2916 159.125 55.9409C160.248 87.0671 135.829 113.21 104.578 114.335C73.3271 115.454 47.0794 91.1325 45.9497 60.0072C45.9168 59.1123 45.9053 58.2158 45.916 57.3316C50.7242 84.63 75.1248 104.904 103.718 103.877C134.071 102.785 157.974 78.0947 158.299 48.1584Z" fill="#00227B"/>
</g>
</g>
</g>
</g>
<path d="M102.482 115.948C95.3805 115.948 88.4438 114.679 81.8296 112.169C74.7975 109.5 68.4252 105.546 62.8913 100.418C57.3574 95.2896 52.9392 89.2444 49.7592 82.4509C46.4665 75.4165 44.6539 67.8839 44.3709 60.0637C44.0879 52.2434 45.3508 44.6002 48.126 37.3478C50.8057 30.3437 54.7756 23.9969 59.9244 18.4851C65.0732 12.9733 71.1411 8.57191 77.9626 5.40546C85.0252 2.12591 92.588 0.320609 100.44 0.0387097C108.292 -0.24319 115.965 1.01471 123.247 3.7788C130.279 6.44783 136.651 10.4018 142.185 15.5301C147.719 20.6584 152.137 26.7036 155.317 33.4971C158.61 40.5315 160.422 48.0641 160.705 55.8843C160.988 63.7046 159.725 71.3478 156.95 78.6002C154.27 85.6043 150.301 91.9511 145.152 97.4629C140.003 102.975 133.933 107.375 127.113 110.543C120.05 113.822 112.487 115.627 104.636 115.909C103.917 115.935 103.198 115.948 102.482 115.948ZM102.564 3.15354C101.895 3.15354 101.228 3.16583 100.554 3.18959C70.2246 4.2795 46.4402 29.7422 47.5344 59.9506C48.0643 74.5839 54.2844 88.1356 65.0477 98.1103C75.3133 107.623 88.5409 112.795 102.489 112.795C103.165 112.795 103.843 112.783 104.523 112.758C119.215 112.231 132.821 106.035 142.836 95.315C152.85 84.5947 158.073 70.6316 157.543 55.9982C156.472 26.4602 132.002 3.15354 102.564 3.15354Z" fill="#00227B"/>
<path d="M158.996 57.3946C159.563 68.4158 156.496 78.8321 150.789 87.6112C146.509 94.1932 128.148 106.267 104.78 107.669C83.1124 108.968 62.7976 98.4627 57.866 92.351C51.2872 84.1981 47.1693 74.1488 46.6024 63.1277C45.1025 33.9617 69.6397 20.5871 100.678 19.0038C131.715 17.4206 157.496 28.2287 158.996 57.3946Z" fill="#3949AB"/>
<path d="M101.019 108.864C90.2447 108.864 80.8742 106.19 74.6542 103.8C66.7779 100.774 59.8543 96.5467 57.0166 93.0296C50.0519 84.3988 46.0747 74.0775 45.5144 63.1826C45.1425 55.9532 46.3396 49.3933 49.0704 43.6848C51.6415 38.3123 55.585 33.6577 60.7931 29.8488C70.3075 22.8898 84.0797 18.7654 100.621 17.9221C117.162 17.0789 131.285 19.7799 141.463 25.7342C147.034 28.9933 151.435 33.2226 154.544 38.3058C157.846 43.7061 159.71 50.1103 160.081 57.3397C160.641 68.2347 157.742 78.9059 151.7 88.2004C149.19 92.0618 142.954 96.795 135.428 100.552C128.817 103.852 118.145 107.953 104.844 108.75C103.552 108.827 102.275 108.864 101.019 108.864ZM106.461 19.9372C104.588 19.9372 102.679 19.9864 100.732 20.0856C84.617 20.9075 71.252 24.8877 62.0807 31.5951C51.8414 39.0843 46.9987 49.6752 47.6873 63.072C48.2238 73.5088 52.0364 83.3991 58.7123 91.6725C60.6985 94.1342 66.2702 98.2578 75.4374 101.779C82.1816 104.369 92.7343 107.306 104.714 106.588C117.647 105.812 128.026 101.823 134.455 98.6143C143.07 94.3137 148.147 89.682 149.876 87.0228C155.668 78.1134 158.447 67.8872 157.91 57.4504C157.222 44.0536 151.317 34.0109 140.363 27.6026C131.737 22.5563 120.099 19.9372 106.461 19.9372Z" fill="#00227B"/>
<g opacity="0.5">
<g opacity="0.5">
<g opacity="0.5">
<g opacity="0.5">
<path d="M147.722 55.2866C148.429 49.8197 145.778 44.9745 141.801 44.4645C137.823 43.9545 134.026 47.9727 133.32 53.4395C132.613 58.9064 135.264 63.7516 139.241 64.2616C143.219 64.7717 147.016 60.7534 147.722 55.2866Z" fill="white"/>
</g>
</g>
</g>
</g>
<g opacity="0.5">
<g opacity="0.5">
<g opacity="0.5">
<g opacity="0.5">
<path d="M136.468 75.6066C137.138 73.1663 135.976 70.724 133.873 70.1517C131.771 69.5794 129.524 71.0938 128.854 73.5342C128.184 75.9746 129.346 78.4168 131.449 78.9891C133.551 79.5614 135.799 78.047 136.468 75.6066Z" fill="white"/>
</g>
</g>
</g>
</g>
<g opacity="0.35">
<path d="M146.667 30.7429C153.873 36.9217 158.391 45.6795 158.995 57.3931C159.562 68.4167 156.494 78.8322 150.79 87.6113C146.51 94.1933 128.146 106.267 104.778 107.671C96.5276 108.169 88.4753 106.951 81.3896 104.913C110.077 102.577 132.439 87.767 137.746 79.6033C144.991 68.4609 148.882 55.2395 148.16 41.2543C147.971 37.5159 147.458 34.0159 146.667 30.7429Z" fill="#00227B"/>
</g>
<path d="M49.5542 39.5579C49.235 39.5579 48.9141 39.4588 48.6393 39.2531C47.9926 38.7679 47.8437 37.869 48.2839 37.206C50.6337 33.361 53.6343 29.8471 57.2018 26.7626C60.6755 23.7601 64.7153 21.1386 69.2084 18.971C73.6077 16.8494 78.4702 15.1498 83.6602 13.919C88.8032 12.6996 94.2935 11.9342 99.9805 11.6441C105.574 11.3589 111.054 11.5515 116.27 12.2153C121.533 12.8856 126.537 14.0386 131.142 15.6407C135.854 17.2805 140.165 19.398 143.956 21.9343C147.854 24.5418 151.225 27.6083 153.977 31.0493C154.458 31.5795 154.507 32.3916 154.057 32.9816C153.549 33.6487 152.594 33.7782 151.924 33.2717L151.764 33.1537L151.644 33.0013C141.451 20.2044 122.676 13.524 100.136 14.6737C77.4705 15.83 59.5113 24.6312 50.8624 38.8204L50.8229 38.8851L50.7711 38.9531C50.4733 39.3489 50.0166 39.5579 49.5542 39.5579Z" fill="#00227B"/>
<g opacity="0.5">
<g opacity="0.5">
<g opacity="0.5">
<g opacity="0.5">
<path d="M60.1143 79.8344C60.1143 79.8344 49.5657 51.5248 64.5449 39.2646C79.524 27.0045 101.925 25.9088 101.475 27.3658C101.475 27.3658 76.9858 34.61 68.2868 54.6298C61.5788 70.0679 60.1143 79.8344 60.1143 79.8344Z" fill="white"/>
</g>
</g>
</g>
</g>
<path d="M153.853 217.508H53.4297C50.1781 217.508 47.542 214.882 47.542 211.644C47.542 209.778 49.0608 208.265 50.9342 208.265H156.348C158.222 208.265 159.74 209.778 159.74 211.644C159.74 214.883 157.104 217.508 153.853 217.508Z" fill="#E6E9FA"/>
<g opacity="0.3">
<g opacity="0.3">
<g opacity="0.3">
<g opacity="0.3">
<path opacity="0.3" d="M159.739 211.644C159.739 212.285 159.634 212.901 159.443 213.478C158.916 212.297 157.73 211.477 156.349 211.477H50.9351C49.9996 211.477 49.1505 211.853 48.5367 212.469C48.2446 212.76 48.0052 213.099 47.8374 213.479C47.6465 212.902 47.542 212.287 47.542 211.645C47.542 210.714 47.9196 209.868 48.5375 209.257C49.1513 208.642 50.0004 208.265 50.9359 208.265H156.349C158.223 208.264 159.739 209.777 159.739 211.644Z" fill="white"/>
</g>
</g>
</g>
</g>
<g opacity="0.35">
<g opacity="0.35">
<g opacity="0.35">
<g opacity="0.35">
<path opacity="0.35" d="M159.739 211.645C159.739 213.262 159.08 214.731 158.013 215.789C156.95 216.851 155.476 217.507 153.852 217.507H53.4312C50.1796 217.507 47.541 214.883 47.541 211.645C47.541 211.022 47.7097 210.437 48.0083 209.934C48.8986 212.032 50.9941 213.508 53.4303 213.508H153.852C155.476 213.508 156.95 212.852 158.012 211.79C158.544 211.26 158.974 210.631 159.27 209.934C159.571 210.437 159.739 211.022 159.739 211.645Z" fill="#00227B"/>
</g>
</g>
</g>
</g>
<path d="M153.853 218.999H53.4302C49.3583 218.999 46.0459 215.7 46.0459 211.645C46.0459 208.96 48.2394 206.775 50.9348 206.775H156.349C159.044 206.775 161.237 208.96 161.237 211.645C161.237 215.699 157.925 218.999 153.853 218.999ZM50.9339 209.757C49.889 209.757 49.0383 210.603 49.0383 211.645C49.0383 214.056 51.008 216.018 53.4294 216.018H153.853C156.275 216.018 158.244 214.056 158.244 211.645C158.244 210.604 157.394 209.757 156.349 209.757H50.9339Z" fill="#00227B"/>
<path d="M165.603 142.244L155.781 208.263H51.5047L51.1493 205.875L41.6777 142.244C41.3675 140.154 42.9949 138.279 45.1127 138.279H162.167C164.29 138.279 165.913 140.154 165.603 142.244Z" fill="#FF66AC"/>
<path d="M165.603 142.244L155.781 208.263H51.5047L51.1493 205.875L41.6777 142.244C41.3675 140.154 42.9949 138.279 45.1127 138.279H162.167C164.29 138.279 165.913 140.154 165.603 142.244Z" fill="#E6E9FA"/>
<g opacity="0.5">
<g opacity="0.5">
<g opacity="0.5">
<g opacity="0.5">
<path opacity="0.5" d="M45.3802 146.342C45.0701 144.252 46.6975 142.377 48.8153 142.377H165.583L165.603 142.245C165.913 140.154 164.29 138.279 162.168 138.279H45.1137C42.9959 138.279 41.3685 140.154 41.6786 142.245L51.1495 205.876L51.5049 208.264H54.5976L45.3802 146.342Z" fill="white"/>
</g>
</g>
</g>
</g>
<g opacity="0.35">
<g opacity="0.35">
<g opacity="0.35">
<g opacity="0.35">
<path opacity="0.35" d="M158.877 138.279H150.657C153.774 149.651 152.054 175.332 131.948 188.753C106.707 205.602 61.2181 205.494 51.5605 205.875L51.916 208.263H152.49L162.312 142.244C162.622 140.154 160.999 138.279 158.877 138.279Z" fill="#00227B"/>
</g>
</g>
</g>
</g>
<path d="M157.07 209.757H50.2133L40.1994 142.462C39.9872 141.037 40.4076 139.595 41.3521 138.504C42.2967 137.413 43.6682 136.788 45.1138 136.788H162.17C163.616 136.788 164.987 137.413 165.931 138.504C166.876 139.595 167.296 141.037 167.084 142.462L157.07 209.757ZM52.7959 206.774H154.488L164.123 142.024C164.209 141.45 164.046 140.891 163.665 140.451C163.284 140.011 162.753 139.769 162.17 139.769H45.1138C44.5305 139.769 43.9998 140.012 43.6188 140.451C43.2379 140.891 43.075 141.45 43.1606 142.024L52.7959 206.774Z" fill="#00227B"/>
<g opacity="0.3">
<g opacity="0.3">
<g opacity="0.3">
<g opacity="0.3">
<path opacity="0.3" d="M59.8051 192.839C55.8492 184.155 52.9688 169.329 53.6179 160.604C54.2671 151.88 59.3476 154.549 60.9224 165.725C65.1127 195.469 61.5707 196.717 59.8051 192.839Z" fill="white"/>
</g>
</g>
</g>
</g>
<path d="M117.265 165.781C117.392 164.666 117.54 163.54 117.321 162.406C117.223 162.283 117.133 162.157 117.035 162.034C116.711 161.918 116.396 161.766 116.059 161.682C113.686 161.071 111.28 160.83 108.836 161.039C105.65 161.313 102.725 162.292 100.21 164.31C99.2988 165.038 98.4687 165.86 97.6188 166.657C97.3909 166.873 97.2156 166.963 96.8956 166.818C96.1427 166.477 95.3315 166.324 94.5079 166.283C92.2988 166.183 90.3274 166.895 88.4886 168.044C86.4958 169.295 84.8898 170.966 83.394 172.755C82.7572 173.513 83.0049 174.358 83.9527 174.676C84.5508 174.871 85.149 175.062 85.7471 175.257C87.1804 175.719 88.6103 176.177 90.0395 176.638C90.0362 176.683 90.0403 176.705 90.0337 176.728C90.0222 176.755 90.0099 176.787 89.9901 176.814C89.3936 177.578 89.5384 178.285 90.167 178.948C90.2345 179.022 90.2929 179.11 90.3521 179.189C90.6812 179.62 91.0177 180.056 91.3666 180.505C90.8902 180.872 90.4221 181.183 90.0082 181.559C89.7992 181.749 89.6149 182.024 89.5359 182.297C89.4018 182.737 89.6306 183.187 90.0238 183.418C90.441 183.668 90.8705 183.657 91.2588 183.378C91.7516 183.029 92.2223 182.651 92.7233 182.27C93.1964 182.891 93.6448 183.478 94.0949 184.059C94.6107 184.72 94.9662 184.833 95.7659 184.613C95.9115 184.568 96.0555 184.536 96.2275 184.495C96.239 184.665 96.2522 184.802 96.2596 184.93C96.3616 186.988 96.4554 189.05 96.5689 191.103C96.6208 192.076 97.3925 192.536 98.2753 192.119C99.0726 191.744 99.869 191.348 100.651 190.926C102.452 189.95 104.091 188.755 105.398 187.166C107.034 185.167 107.94 182.933 107.517 180.295C107.499 180.191 107.586 180.013 107.676 179.96C108.479 179.444 109.304 178.961 110.107 178.442C111.924 177.263 113.385 175.73 114.527 173.9C116.078 171.411 116.935 168.68 117.265 165.781ZM91.2218 174.689C89.5672 174.152 87.8517 173.595 86.0894 173.024C87.9102 171.096 89.8371 169.413 92.4321 168.702C93.5535 168.395 94.8493 168.421 95.6145 168.731C94.1615 170.706 92.7052 172.681 91.2218 174.689ZM105.139 183.16C104.718 184.496 103.915 185.584 102.926 186.555C101.697 187.747 100.266 188.637 98.7196 189.448C98.6266 187.555 98.5312 185.703 98.4374 183.89C100.777 182.983 103.064 182.099 105.363 181.209C105.451 181.84 105.343 182.509 105.139 183.16ZM113.776 170.486C113.023 172.255 112.036 173.866 110.627 175.2C109.541 176.224 108.308 177.045 107.01 177.775C103.49 179.754 99.7176 181.118 95.8605 182.272C95.6721 182.326 95.5569 182.316 95.4327 182.144C95.1636 181.763 94.8617 181.396 94.577 181.02C94.5581 180.999 94.5515 180.963 94.5244 180.896C94.6231 180.818 94.7284 180.74 94.8345 180.659C97.0354 178.975 99.247 177.298 101.449 175.611C102.085 175.13 102.113 174.304 101.524 173.827C101.112 173.491 100.57 173.496 100.095 173.852C98.7706 174.858 97.4493 175.865 96.1279 176.875C95.1422 177.626 94.1648 178.373 93.1413 179.155C92.79 178.698 92.451 178.28 92.1449 177.841C92.0931 177.763 92.1457 177.564 92.2165 177.467C93.3898 175.723 94.5531 173.97 95.7741 172.257C96.9819 170.555 98.3551 168.984 99.8657 167.541C101.282 166.178 102.817 164.975 104.672 164.258C105.862 163.797 107.09 163.483 108.357 163.348C108.473 163.332 108.64 163.446 108.721 163.552C110.01 165.212 111.284 166.875 112.562 168.541C112.945 169.037 113.324 169.542 113.719 170.032C113.837 170.18 113.852 170.306 113.776 170.486ZM114.541 168.163C113.267 166.501 112.023 164.884 110.777 163.26C110.779 163.223 110.79 163.18 110.795 163.14C112.246 163.313 113.7 163.49 115.168 163.665C115.141 165.241 114.907 166.684 114.541 168.163Z" fill="#00227B"/>
<path d="M113.721 170.032C113.325 169.542 112.947 169.036 112.564 168.54C111.287 166.874 110.012 165.211 108.723 163.551C108.642 163.445 108.475 163.331 108.359 163.347C107.092 163.482 105.864 163.796 104.674 164.258C102.818 164.975 101.284 166.178 99.8676 167.54C98.357 168.983 96.9839 170.554 95.776 172.256C94.5551 173.97 93.3917 175.723 92.2184 177.466C92.1477 177.563 92.095 177.762 92.1468 177.84C92.4521 178.28 92.7911 178.697 93.1432 179.154C94.1667 178.372 95.1442 177.624 96.1298 176.874C97.4512 175.864 98.7725 174.857 100.097 173.851C100.572 173.496 101.113 173.491 101.526 173.826C102.115 174.304 102.087 175.13 101.451 175.611C99.2489 177.297 97.0373 178.975 94.8365 180.658C94.7303 180.739 94.6242 180.817 94.5263 180.895C94.5534 180.963 94.56 180.998 94.5789 181.019C94.8636 181.395 95.1656 181.762 95.4346 182.143C95.5588 182.316 95.674 182.325 95.8624 182.271C99.7196 181.117 103.492 179.753 107.012 177.774C108.309 177.045 109.543 176.223 110.629 175.199C112.037 173.865 113.025 172.254 113.778 170.485C113.852 170.306 113.837 170.18 113.721 170.032ZM109.858 172.569C108.175 173.832 105.794 173.523 104.53 171.87C103.258 170.219 103.579 167.849 105.246 166.569C106.883 165.314 109.264 165.638 110.541 167.29C111.802 168.931 111.494 171.336 109.858 172.569Z" fill="white"/>
<path d="M114.541 168.162C113.266 166.503 112.022 164.884 110.777 163.26C110.781 163.222 110.79 163.182 110.795 163.14C112.246 163.314 113.701 163.491 115.171 163.666C115.143 165.239 114.907 166.684 114.541 168.162Z" fill="#DB2C2C"/>
<path d="M95.6146 168.732C94.16 170.704 92.7037 172.681 91.2219 174.69C89.5649 174.15 87.8494 173.595 86.0879 173.024C87.9103 171.094 89.8364 169.411 92.4314 168.702C93.5528 168.394 94.847 168.421 95.6146 168.732Z" fill="#DB2C2C"/>
<path d="M102.925 186.555C101.696 187.748 100.267 188.639 98.7189 189.448C98.6251 187.557 98.5305 185.705 98.4375 183.89C100.777 182.984 103.063 182.101 105.365 181.208C105.453 181.841 105.342 182.508 105.141 183.161C104.72 184.498 103.917 185.585 102.925 186.555Z" fill="#DB2C2C"/>
<path d="M110.54 167.29C109.264 165.638 106.882 165.315 105.245 166.569C103.578 167.85 103.257 170.219 104.529 171.87C105.793 173.523 108.174 173.832 109.857 172.569C111.494 171.336 111.802 168.931 110.54 167.29ZM108.723 171.175C107.871 171.818 106.618 171.648 105.954 170.8C105.267 169.926 105.455 168.641 106.364 167.969C107.216 167.333 108.492 167.517 109.133 168.37C109.802 169.256 109.618 170.501 108.723 171.175Z" fill="#00227B"/>
<path d="M108.722 171.175C107.87 171.818 106.617 171.648 105.952 170.799C105.268 169.926 105.453 168.641 106.362 167.969C107.216 167.335 108.49 167.517 109.131 168.368C109.801 169.256 109.619 170.502 108.722 171.175Z" fill="#22A7F0"/>
<path d="M165.086 145.728C165.086 145.728 157.004 141.908 149.415 145.334C142.148 148.615 137.006 171.975 146.422 177.893C152.233 181.545 156.189 178.319 159.477 179.266C164.353 180.671 174.358 156.618 165.086 145.728Z" fill="white"/>
<g opacity="0.35">
<path d="M168.731 160.93C167.773 170.721 162.583 180.161 159.478 179.266C156.188 178.32 152.233 181.547 146.422 177.895C141.924 175.066 140.749 168.261 141.542 161.559C142.077 165.469 143.592 168.819 146.422 170.597C152.233 174.245 156.103 172.55 159.478 171.969C163.65 171.249 167.051 166.71 168.731 160.93Z" fill="#00227B"/>
</g>
<path d="M152.381 181.17C150.42 181.17 148.151 180.743 145.623 179.154C143.359 177.731 141.724 175.429 140.764 172.312C139.958 169.696 139.657 166.509 139.892 163.094C140.171 159.05 141.17 154.901 142.703 151.411C143.874 148.746 145.883 145.292 148.796 143.976C156.924 140.307 165.371 144.212 165.726 144.38L166.017 144.518L166.225 144.763C170.469 149.747 170.714 156.633 170.172 161.531C169.562 167.05 167.606 172.905 165.068 176.81C162.526 180.722 160.397 181.084 159.059 180.699C158.191 180.449 157.094 180.623 155.824 180.826C154.82 180.986 153.667 181.17 152.381 181.17ZM156.333 145.394C154.058 145.394 151.949 145.828 150.034 146.693C148.458 147.404 146.785 149.56 145.447 152.608C144.068 155.745 143.132 159.641 142.88 163.3C142.434 169.759 144.016 174.619 147.221 176.633C150.452 178.664 152.944 178.266 155.353 177.882C156.91 177.634 158.381 177.399 159.893 177.835C160.066 177.865 161.312 177.386 163.069 174.355C167.165 167.287 169.763 153.939 164.159 146.951C163.524 146.688 161.889 146.069 159.75 145.699C158.574 145.496 157.433 145.394 156.333 145.394Z" fill="#00227B"/>
</svg>
